<svg width="20" height="20" viewBox="0 0 20 20" fill="none" xmlns="http://www.w3.org/2000/svg">
<rect width="20" height="20" fill="#872341"/>
<path d="M13.9375 5.875C13.9375 6.02418 13.8782 6.16726 13.7727 6.27275C13.6673 6.37824 13.5242 6.4375 13.375 6.4375H12.002C11.7822 6.43714 11.5693 6.51401 11.4004 6.6547C11.2315 6.79539 11.1175 6.99094 11.0781 7.20719L10.6741 9.4375H12.625C12.7742 9.4375 12.9173 9.49676 13.0227 9.60225C13.1282 9.70774 13.1875 9.85082 13.1875 10C13.1875 10.1492 13.1282 10.2923 13.0227 10.3977C12.9173 10.5032 12.7742 10.5625 12.625 10.5625H10.4688L10.0262 12.9939C9.93988 13.469 9.68958 13.8987 9.31894 14.2082C8.9483 14.5176 8.48083 14.6873 7.99797 14.6875H6.625C6.47582 14.6875 6.33274 14.6282 6.22725 14.5227C6.12176 14.4173 6.0625 14.2742 6.0625 14.125C6.0625 13.9758 6.12176 13.8327 6.22725 13.7273C6.33274 13.6218 6.47582 13.5625 6.625 13.5625H7.99797C8.21777 13.5629 8.43071 13.486 8.59958 13.3453C8.76846 13.2046 8.88253 13.0091 8.92188 12.7928L9.32594 10.5625H7.375C7.22582 10.5625 7.08274 10.5032 6.97725 10.3977C6.87176 10.2923 6.8125 10.1492 6.8125 10C6.8125 9.85082 6.87176 9.70774 6.97725 9.60225C7.08274 9.49676 7.22582 9.4375 7.375 9.4375H9.53125L9.97375 7.00609C10.0601 6.53102 10.3104 6.10131 10.6811 5.79183C11.0517 5.48235 11.5192 5.31272 12.002 5.3125H13.375C13.5242 5.3125 13.6673 5.37176 13.7727 5.47725C13.8782 5.58274 13.9375 5.72582 13.9375 5.875Z" fill="white"/>
</svg>
