<svg width="20" height="20" viewBox="0 0 20 20" fill="none" xmlns="http://www.w3.org/2000/svg">
<rect width="20" height="20" rx="3" fill="#872341"/>
<rect x="0.5" y="0.5" width="19" height="19" rx="2.5" stroke="white" stroke-opacity="0.08"/>
<path d="M14.5938 5.1875C14.5938 5.36155 14.5246 5.52847 14.4015 5.65154C14.2785 5.77461 14.1115 5.84375 13.9375 5.84375H12.3357C12.0793 5.84333 11.8308 5.93302 11.6338 6.09715C11.4368 6.26129 11.3037 6.48943 11.2578 6.74172L10.7864 9.34375H13.0625C13.2365 9.34375 13.4035 9.41289 13.5265 9.53596C13.6496 9.65903 13.7188 9.82595 13.7188 10C13.7188 10.174 13.6496 10.341 13.5265 10.464C13.4035 10.5871 13.2365 10.6562 13.0625 10.6562H10.5469L10.0306 13.4929C9.92987 14.0471 9.63784 14.5485 9.20543 14.9095C8.77302 15.2706 8.22763 15.4685 7.6643 15.4688H6.0625C5.88845 15.4688 5.72153 15.3996 5.59846 15.2765C5.47539 15.1535 5.40625 14.9865 5.40625 14.8125C5.40625 14.6385 5.47539 14.4715 5.59846 14.3485C5.72153 14.2254 5.88845 14.1562 6.0625 14.1562H7.6643C7.92073 14.1567 8.16916 14.067 8.36618 13.9028C8.5632 13.7387 8.69629 13.5106 8.74219 13.2583L9.21359 10.6562H6.9375C6.76345 10.6562 6.59653 10.5871 6.47346 10.464C6.35039 10.341 6.28125 10.174 6.28125 10C6.28125 9.82595 6.35039 9.65903 6.47346 9.53596C6.59653 9.41289 6.76345 9.34375 6.9375 9.34375H9.45312L9.96938 6.50711C10.0701 5.95286 10.3622 5.45153 10.7946 5.09047C11.227 4.72941 11.7724 4.53151 12.3357 4.53125H13.9375C14.1115 4.53125 14.2785 4.60039 14.4015 4.72346C14.5246 4.84653 14.5938 5.01345 14.5938 5.1875Z" fill="white"/>
</svg>
