<svg width="128" height="128" viewBox="0 0 128 128" fill="none" xmlns="http://www.w3.org/2000/svg">
<rect width="128" height="128" fill="black"/>
<g filter="url(#filter0_d_412_21)">
<path d="M94.1875 32.375C94.1875 33.5187 93.7331 34.6156 92.9244 35.4244C92.1156 36.2331 91.0187 36.6875 89.875 36.6875H79.3489C77.6638 36.6847 76.0313 37.2741 74.7365 38.3527C73.4418 39.4313 72.5673 40.9305 72.2656 42.5884L69.1678 59.6875H84.125C85.2687 59.6875 86.3656 60.1419 87.1744 60.9506C87.9831 61.7594 88.4375 62.8563 88.4375 64C88.4375 65.1437 87.9831 66.2406 87.1744 67.0494C86.3656 67.8581 85.2687 68.3125 84.125 68.3125H67.5938L64.2012 86.9533C63.5391 90.5955 61.6201 93.8899 58.7785 96.2626C55.937 98.6353 52.353 99.9358 48.6511 99.9375H38.125C36.9813 99.9375 35.8844 99.4831 35.0756 98.6744C34.2669 97.8656 33.8125 96.7687 33.8125 95.625C33.8125 94.4813 34.2669 93.3844 35.0756 92.5756C35.8844 91.7669 36.9813 91.3125 38.125 91.3125H48.6511C50.3362 91.3153 51.9687 90.7259 53.2635 89.6473C54.5582 88.5687 55.4327 87.0695 55.7344 85.4116L58.8322 68.3125H43.875C42.7313 68.3125 41.6344 67.8581 40.8256 67.0494C40.0169 66.2406 39.5625 65.1437 39.5625 64C39.5625 62.8563 40.0169 61.7594 40.8256 60.9506C41.6344 60.1419 42.7313 59.6875 43.875 59.6875H60.4062L63.7988 41.0467C64.4609 37.4045 66.3799 34.1101 69.2215 31.7374C72.063 29.3647 75.647 28.0642 79.3489 28.0625H89.875C91.0187 28.0625 92.1156 28.5169 92.9244 29.3256C93.7331 30.1344 94.1875 31.2313 94.1875 32.375Z" fill="white"/>
</g>
<defs>
<filter id="filter0_d_412_21" x="31.8125" y="27.0625" width="64.375" height="75.875" filterUnits="userSpaceOnUse" color-interpolation-filters="sRGB">
<feFlood flood-opacity="0" result="BackgroundImageFix"/>
<feColorMatrix in="SourceAlpha" type="matrix" values="0 0 0 0 0 0 0 0 0 0 0 0 0 0 0 0 0 0 127 0" result="hardAlpha"/>
<feOffset dy="1"/>
<feGaussianBlur stdDeviation="1"/>
<feComposite in2="hardAlpha" operator="out"/>
<feColorMatrix type="matrix" values="0 0 0 0 1 0 0 0 0 1 0 0 0 0 1 0 0 0 0.2 0"/>
<feBlend mode="normal" in2="BackgroundImageFix" result="effect1_dropShadow_412_21"/>
<feBlend mode="normal" in="SourceGraphic" in2="effect1_dropShadow_412_21" result="shape"/>
</filter>
</defs>
</svg>
